<svg xmlns="http://www.w3.org/2000/svg" version="1.1" xmlns:xlink="http://www.w3.org/1999/xlink" xmlns:svgjs="http://svgjs.dev/svgjs" width="1000" height="750" viewBox="0 0 1000 750"><rect width="1000" height="750" fill="#000000"></rect><g transform="matrix(0.834,0,0,0.834,82.49454545454546,115.4193570850203)"><svg viewBox="0 0 396 247" data-background-color="#000000" preserveAspectRatio="xMidYMid meet" height="623" width="1000" xmlns="http://www.w3.org/2000/svg" xmlns:xlink="http://www.w3.org/1999/xlink"><g id="tight-bounds" transform="matrix(1,0,0,1,0.2400000000000091,-0.09999999999999432)"><svg viewBox="0 0 395.52 247.2" height="247.2" width="395.52"><g><svg></svg></g><g><svg viewBox="0 0 395.52 247.2" height="247.2" width="395.52"><mask id="716600a9-0297-4c83-abf9-f4519d6b43ed"><rect width="640" height="400" fill="white"></rect><g transform="matrix(1,0,0,1,39.55199999999999,42.348768729641705)"><svg viewBox="0 0 316.416 162.50246254071658" height="162.50246254071658" width="316.416"><g><svg viewBox="0 0 316.416 162.50246254071658" height="162.50246254071658" width="316.416"><g><svg viewBox="0 0 316.416 162.50246254071658" height="162.50246254071658" width="316.416"><g><svg viewBox="0 0 316.416 162.50246254071658" height="162.50246254071658" width="316.416"><g id="SvgjsG1604"><svg viewBox="0 0 316.416 162.50246254071658" height="162.50246254071658" width="316.416" id="SvgjsSvg1603"><g><svg viewBox="0 0 316.416 162.50246254071658" height="162.50246254071658" width="316.416"><g transform="matrix(1,0,0,1,0,0)"><svg width="316.416" viewBox="-4.15 -44.25 93.10000000000001 48.3" height="162.50246254071658" data-palette-color="#ffffff"><path d="M43-1.75L42.1 0 27.6 0 27.6-1.3 32.1-5 28.1-14.65 11.1-14.65 6.7-4.6 15.7-1.75 14.85 0-0.15 0-0.15-1.3 4.4-4.9 18.8-37.7 23.3-40.25 38-4.9 43-1.75ZM27.3-16.6L19.85-34.6 11.95-16.6 27.3-16.6ZM56.55-3.55L61.75-1.7 60.9 0.05 46.2 0.05 46.2-1.25 50.9-4.9 50.9-35.7 45.75-37.55 46.6-39.3 61.3-39.3 61.3-38 56.55-34.35 56.55-3.55ZM84.95-1.7L84.1 0.05 75.35 0.05 59.6-19.65 75.1-33.15 69.35-37.5 70.2-39.25 83.35-39.25 83.35-37.95 65-21.95 79.05-4.6 84.95-1.7Z" opacity="1" transform="matrix(1,0,0,1,0,0)" fill="black" class="wordmark-text-0" id="SvgjsPath1602" stroke-width="7" stroke="black" stroke-linejoin="round"></path></svg></g></svg></g></svg></g></svg></g></svg></g></svg></g></svg></g></mask><g transform="matrix(1,0,0,1,39.55199999999999,42.348768729641705)"><svg viewBox="0 0 316.416 162.50246254071658" height="162.50246254071658" width="316.416"><g><svg viewBox="0 0 316.416 162.50246254071658" height="162.50246254071658" width="316.416"><g><svg viewBox="0 0 316.416 162.50246254071658" height="162.50246254071658" width="316.416"><g><svg viewBox="0 0 316.416 162.50246254071658" height="162.50246254071658" width="316.416"><g id="textblocktransform"><svg viewBox="0 0 316.416 162.50246254071658" height="162.50246254071658" width="316.416" id="textblock"><g><svg viewBox="0 0 316.416 162.50246254071658" height="162.50246254071658" width="316.416"><g transform="matrix(1,0,0,1,0,0)"><svg width="316.416" viewBox="-4.15 -44.25 93.10000000000001 48.3" height="162.50246254071658" data-palette-color="#ffffff"><path d="M43-1.75L42.1 0 27.6 0 27.6-1.3 32.1-5 28.1-14.65 11.1-14.65 6.7-4.6 15.7-1.75 14.85 0-0.15 0-0.15-1.3 4.4-4.9 18.8-37.7 23.3-40.25 38-4.9 43-1.75ZM27.3-16.6L19.85-34.6 11.95-16.6 27.3-16.6ZM56.55-3.55L61.75-1.7 60.9 0.05 46.2 0.05 46.2-1.25 50.9-4.9 50.9-35.7 45.75-37.55 46.6-39.3 61.3-39.3 61.3-38 56.55-34.35 56.55-3.55ZM84.95-1.7L84.1 0.05 75.35 0.05 59.6-19.65 75.1-33.15 69.35-37.5 70.2-39.25 83.35-39.25 83.35-37.95 65-21.95 79.05-4.6 84.95-1.7Z" opacity="1" transform="matrix(1,0,0,1,0,0)" fill="#ffffff" class="wordmark-text-0" data-fill-palette-color="primary" id="text-0"></path></svg></g></svg></g></svg></g></svg></g></svg></g></svg></g></svg></g><g mask="url(#716600a9-0297-4c83-abf9-f4519d6b43ed)"><g transform="matrix(3.0487274174095766, 0, 0, 3.0487274174095766, 45.32310283852999, 1)"><svg xmlns="http://www.w3.org/2000/svg" xmlns:xlink="http://www.w3.org/1999/xlink" version="1.1" x="0" y="0" viewBox="0 9.786 100.00034525290006 80.42699999999999" enable-background="new 0 0 100 100" xml:space="preserve" width="100.00034525290006" height="80.42699999999999" class="icon-none" data-fill-palette-color="accent" id="none"><path d="M49.942 52.994c13.552-0.488 27.103-0.977 40.653-1.465-2.527-4.177-3.159-7.831-7.989-8.461-7.229-0.94-14.458-1.883-21.688-2.826-14.023-1.827-28.05-3.654-42.075-5.48C20.101 36.792 39.724 53.361 49.942 52.994z" fill="#00d1cd" data-fill-palette-color="accent"></path><path d="M0 9.786c4.391 7.257 26.615 23.072 32.953 23.886 17.33 2.231 34.657 4.46 51.986 6.688-3.393-5.607-4.18-9.35-10.312-10.959-8.904-2.341-17.812-4.683-26.717-7.023C31.94 18.182 15.97 13.984 0 9.786z" fill="#00d1cd" data-fill-palette-color="accent"></path><path d="M63.108 66.207c10.413-2.219 20.826-4.439 31.241-6.66-2.028-3.346-2.034-5.359-5.827-5.189-6.158 0.273-12.314 0.549-18.471 0.822-11.343 0.506-22.686 1.014-34.028 1.518C37.298 58.064 54.94 67.947 63.108 66.207z" fill="#00d1cd" data-fill-palette-color="accent"></path><path d="M87.682 90.213c5.725-3.719 7.262-7.721 10.519-13.807 3.651-6.824 1.257-7.844-2.821-14.596-0.417-0.688-5.842 0.232-6.453 0.904-0.745 0.818-0.248 5.455-0.294 6.496C88.315 76.211 87.998 83.213 87.682 90.213z" fill="#00d1cd" data-fill-palette-color="accent"></path><path d="M86.35 63.447c-3.795 0.809-8.604 0.191-9.572 4.229-1.373 5.736-2.746 11.475-4.12 17.211C81.904 82.678 86.028 71.582 86.35 63.447z" fill="#00d1cd" data-fill-palette-color="accent"></path><path d="M74.666 66.121c-9.148 1.953-8.956 4.611-12.879 13.18C68.007 78.711 73.811 71.941 74.666 66.121z" fill="#00d1cd" data-fill-palette-color="accent"></path></svg></g></g></svg></g><defs></defs></svg><rect width="395.52" height="247.2" fill="none" stroke="none" visibility="hidden"></rect></g></svg></g></svg>